# xmcd
#
# Track frame offsets:
#	150
#	16983
#	30198
#	59759
#	78582
#	98988
#	118734
#	137141
#	170010
#	187682
#	204717
#
# Disc length: 3232 seconds
#
# Revision: 1
# Processed by: cddbd v1.5.2PL0 Copyright (c) Steve Scherf et al.
# Submitted via: audiograbber 1.83.01
#
DISCID=930c9e0b
DTITLE=Teague Stefan Band - Hard eight
DYEAR=2006
DGENRE=Blues
TTITLE0=Crawl to you
TTITLE1=Dance with me
TTITLE2=A broken world
TTITLE3=Ride all night
TTITLE4=Victoria
TTITLE5=Carl Perkins
TTITLE6=Sweet Angel
TTITLE7=Love's a gamble
TTITLE8=Believe in me
TTITLE9=Why I love you
TTITLE10=Taxman
EXTD=
EXTT0=
EXTT1=
EXTT2=
EXTT3=
EXTT4=
EXTT5=
EXTT6=
EXTT7=
EXTT8=
EXTT9=
EXTT10=
PLAYORDER=
